HIERARCHY
ROOT Hips
{
	OFFSET -14.64140 90.27770 -84.91600
	CHANNELS 6 Xposition Yposition Zposition Zrotation Xrotation Yrotation
	JOINT Spine
	{
		OFFSET 0.00000 13.20850 -1.60436
		CHANNELS 3 Zrotation Xrotation Yrotation
		JOINT Spine1
		{
			OFFSET 0.00000 8.61716 0.00000
			CHANNELS 3 Zrotation Xrotation Yrotation
			JOINT Spine2
			{
				OFFSET 0.00000 8.61717 0.00000
				CHANNELS 3 Zrotation Xrotation Yrotation
				JOINT Spine3
				{
					OFFSET 0.00000 8.61717 0.00000
					CHANNELS 3 Zrotation Xrotation Yrotation
					JOINT Neck
					{
						OFFSET 0.00000 11.07920 1.10792
						CHANNELS 3 Zrotation Xrotation Yrotation
						JOINT Neck1
						{
							OFFSET 0.00000 7.08032 0.00000
							CHANNELS 3 Zrotation Xrotation Yrotation
							JOINT Head
							{
								OFFSET 0.00000 7.08031 0.00000
								CHANNELS 3 Zrotation Xrotation Yrotation
								End site
								{
									OFFSET 0.00000 0.00000 0.00000
								}
							}
						}
					}
					JOINT RightShoulder
					{
						OFFSET -0.01000 7.91373 5.19711
						CHANNELS 3 Zrotation Xrotation Yrotation
						JOINT RightArm
						{
							OFFSET -18.41580 0.00000 0.00000
							CHANNELS 3 Zrotation Xrotation Yrotation
							JOINT RightForeArm
							{
								OFFSET -29.11090 0.00000 0.00000
								CHANNELS 3 Zrotation Xrotation Yrotation
								JOINT RightHand
								{
									OFFSET -24.65040 0.00000 0.00000
									CHANNELS 3 Zrotation Xrotation Yrotation
									JOINT RightHandThumb1
									{
										OFFSET -5.35114 -0.85590 3.97906
										CHANNELS 3 Zrotation Xrotation Yrotation
										JOINT RightHandThumb2
										{
											OFFSET -4.52789 0.00000 0.00000
											CHANNELS 3 Zrotation Xrotation Yrotation
											JOINT RightHandThumb3
											{
												OFFSET -2.46976 0.00000 0.00000
												CHANNELS 3 Zrotation Xrotation Yrotation
												End site
												{
													OFFSET 0.00000 0.00000 0.00000
												}
											}
										}
									}
									JOINT RightHandIndex1
									{
										OFFSET -14.26970 0.00000 2.88139
										CHANNELS 3 Zrotation Xrotation Yrotation
										JOINT RightHandIndex2
										{
											OFFSET -5.48836 0.00000 0.00000
											CHANNELS 3 Zrotation Xrotation Yrotation
											JOINT RightHandIndex3
											{
												OFFSET -3.01859 0.00000 0.00000
												CHANNELS 3 Zrotation Xrotation Yrotation
												End site
												{
													OFFSET 0.00000 0.00000 0.00000
												}
											}
										}
									}
									JOINT RightHandMiddle1
									{
										OFFSET -14.26970 0.00000 -0.09147
										CHANNELS 3 Zrotation Xrotation Yrotation
										JOINT RightHandMiddle2
										{
											OFFSET -6.17441 0.00000 0.00000
											CHANNELS 3 Zrotation Xrotation Yrotation
											JOINT RightHandMiddle3
											{
												OFFSET -3.56743 0.00000 0.00000
												CHANNELS 3 Zrotation Xrotation Yrotation
												End site
												{
													OFFSET 0.00000 0.00000 0.00000
												}
											}
										}
									}
									JOINT RightHandRing1
									{
										OFFSET -12.69180 0.00000 -3.06433
										CHANNELS 3 Zrotation Xrotation Yrotation
										JOINT RightHandRing2
										{
											OFFSET -5.62556 0.00000 0.00000
											CHANNELS 3 Zrotation Xrotation Yrotation
											JOINT RightHandRing3
											{
												OFFSET -3.56744 0.00000 0.00000
												CHANNELS 3 Zrotation Xrotation Yrotation
												End site
												{
													OFFSET 0.00000 0.00000 0.00000
												}
											}
										}
									}
									JOINT RightHandPinky1
									{
										OFFSET -11.11390 0.00000 -6.03719
										CHANNELS 3 Zrotation Xrotation Yrotation
										JOINT RightHandPinky2
										{
											OFFSET -4.52789 0.00000 0.00000
											CHANNELS 3 Zrotation Xrotation Yrotation
											JOINT RightHandPinky3
											{
												OFFSET -2.46976 0.00000 0.00000
												CHANNELS 3 Zrotation Xrotation Yrotation
												End site
												{
													OFFSET 0.00000 0.00000 0.00000
												}
											}
										}
									}
								}
							}
						}
					}
					JOINT LeftShoulder
					{
						OFFSET 0.01000 7.91373 5.19711
						CHANNELS 3 Zrotation Xrotation Yrotation
						JOINT LeftArm
						{
							OFFSET 18.41580 0.00000 0.00000
							CHANNELS 3 Zrotation Xrotation Yrotation
							JOINT LeftForeArm
							{
								OFFSET 29.11090 0.00000 0.00000
								CHANNELS 3 Zrotation Xrotation Yrotation
								JOINT LeftHand
								{
									OFFSET 24.65040 0.00000 0.00000
									CHANNELS 3 Zrotation Xrotation Yrotation
									JOINT LeftHandThumb1
									{
										OFFSET 5.35114 -0.85590 3.97906
										CHANNELS 3 Zrotation Xrotation Yrotation
										JOINT LeftHandThumb2
										{
											OFFSET 4.52789 0.00000 0.00000
											CHANNELS 3 Zrotation Xrotation Yrotation
											JOINT LeftHandThumb3
											{
												OFFSET 2.46977 0.00000 0.00000
												CHANNELS 3 Zrotation Xrotation Yrotation
												End site
												{
													OFFSET 0.00000 0.00000 0.00000
												}
											}
										}
									}
									JOINT LeftHandIndex1
									{
										OFFSET 14.26970 0.00000 2.88139
										CHANNELS 3 Zrotation Xrotation Yrotation
										JOINT LeftHandIndex2
										{
											OFFSET 5.48836 0.00000 0.00000
											CHANNELS 3 Zrotation Xrotation Yrotation
											JOINT LeftHandIndex3
											{
												OFFSET 3.01859 0.00000 0.00000
												CHANNELS 3 Zrotation Xrotation Yrotation
												End site
												{
													OFFSET 0.00000 0.00000 0.00000
												}
											}
										}
									}
									JOINT LeftHandMiddle1
									{
										OFFSET 14.26970 0.00000 -0.09147
										CHANNELS 3 Zrotation Xrotation Yrotation
										JOINT LeftHandMiddle2
										{
											OFFSET 6.17440 0.00000 0.00000
											CHANNELS 3 Zrotation Xrotation Yrotation
											JOINT LeftHandMiddle3
											{
												OFFSET 3.56744 0.00000 0.00000
												CHANNELS 3 Zrotation Xrotation Yrotation
												End site
												{
													OFFSET 0.00000 0.00000 0.00000
												}
											}
										}
									}
									JOINT LeftHandRing1
									{
										OFFSET 12.69180 0.00000 -3.06433
										CHANNELS 3 Zrotation Xrotation Yrotation
										JOINT LeftHandRing2
										{
											OFFSET 5.62556 0.00000 0.00000
											CHANNELS 3 Zrotation Xrotation Yrotation
											JOINT LeftHandRing3
											{
												OFFSET 3.56744 0.00000 0.00000
												CHANNELS 3 Zrotation Xrotation Yrotation
												End site
												{
													OFFSET 0.00000 0.00000 0.00000
												}
											}
										}
									}
									JOINT LeftHandPinky1
									{
										OFFSET 11.11390 0.00000 -6.03719
										CHANNELS 3 Zrotation Xrotation Yrotation
										JOINT LeftHandPinky2
										{
											OFFSET 4.52789 0.00000 0.00000
											CHANNELS 3 Zrotation Xrotation Yrotation
											JOINT LeftHandPinky3
											{
												OFFSET 2.46976 0.00000 0.00000
												CHANNELS 3 Zrotation Xrotation Yrotation
												End site
												{
													OFFSET 0.00000 0.00000 0.00000
												}
											}
										}
									}
								}
							}
						}
					}
					JOINT pCube4
					{
						OFFSET 0.00000 10.91090 1.10792
						CHANNELS 3 Zrotation Xrotation Yrotation
						End site
						{
							OFFSET 0.00000 0.00000 0.00000
						}
					}
				}
			}
		}
	}
	JOINT RightUpLeg
	{
		OFFSET -9.98441 0.00000 0.00000
		CHANNELS 3 Zrotation Xrotation Yrotation
		JOINT RightLeg
		{
			OFFSET 0.00000 -42.11790 0.00000
			CHANNELS 3 Zrotation Xrotation Yrotation
			JOINT RightFoot
			{
				OFFSET 0.00000 -45.00020 -0.00001
				CHANNELS 3 Zrotation Xrotation Yrotation
				JOINT RightForeFoot
				{
					OFFSET 0.00000 -3.74820 0.00000
					CHANNELS 3 Zrotation Xrotation Yrotation
					JOINT RightToeBase
					{
						OFFSET 0.00000 0.06325 14.43120
						CHANNELS 3 Zrotation Xrotation Yrotation
						End site
						{
							OFFSET 0.00000 0.00000 0.00000
						}
					}
				}
			}
		}
	}
	JOINT LeftUpLeg
	{
		OFFSET 9.98441 0.00000 0.00000
		CHANNELS 3 Zrotation Xrotation Yrotation
		JOINT LeftLeg
		{
			OFFSET 0.00000 -42.11800 0.00000
			CHANNELS 3 Zrotation Xrotation Yrotation
			JOINT LeftFoot
			{
				OFFSET 0.00000 -45.00070 0.00000
				CHANNELS 3 Zrotation Xrotation Yrotation
				JOINT LeftForeFoot
				{
					OFFSET 0.00000 -3.74824 0.00000
					CHANNELS 3 Zrotation Xrotation Yrotation
					JOINT LeftToeBase
					{
						OFFSET 0.00000 0.06325 14.43110
						CHANNELS 3 Zrotation Xrotation Yrotation
						End site
						{
							OFFSET 0.00000 0.00000 0.00000
						}
					}
				}
			}
		}
	}
}
MOTION
Frames: 4
Frame Time: 0.050000
0.04322052817849698 -0.04128853072647462 0.015883166445048447 0.018074580367681108 -0.024369770233454983 -0.02908093090065361 5.950174632785534 5.164912328911928 -2.243956693501882 -0.7470594175663442 3.6687439035058644 0.36349038055066596 -0.2871732704341923 -0.9402125667147658 -0.27610855731461653 -1.2384128436204258 -0.47473863233430996 -0.3270206412847389 -1.4462909451318702 13.137406078696555 2.499337883488253 0.28871593251338434 -1.1087266000397193 8.010987813621325 -0.4392109549478561 -18.311902918089448 0.6396516722659074 -10.78085376105966 3.9411984077562323 -18.38517402975496 85.09449040468921 -8.390556898696584 -0.24269282191031905 28.196191014287916 6.083172626978666 82.64714730280897 9.15050816937617 -0.48348377924195396 -4.570500441978517 4.543181802352062 -0.164480688067399 -1.622422382565272 -0.0172041188576317 -0.023919073362945114 -56.25076383939834 0.034431502689132525 -0.017758242456034714 -56.18548468588309 -38.771746849823614 0.012596207582489945 -0.005698126377021452 -0.0007675079995167368 -0.021999179534811463 0.031795578922894904 -0.029488608367052586 -0.04635211170053167 -0.005258789259442981 -36.68103885590254 0.03428377707899643 -0.01851752849441548 -0.006968715260921322 -0.0013926003318733913 0.003882863893204475 0.030545715149761888 -0.013317195982839954 -0.00023280947137014726 -19.742257140045655 0.005446123838239379 0.0292865566205108 -0.03888630671808079 0.012139396998364672 0.013837890235306924 0.03763025960999592 0.045827535103285244 -0.026737781828208906 24.036572283968585 0.009480791632289145 -0.044272674077600944 28.89386787437223 -0.02450717414685057 -0.004383654910168568 28.860409131624284 0.017319558696485483 -0.01954213750687187 13.651237968162702 3.127734598751798 14.766722080229957 -77.56220693611093 12.847744242452174 -19.8519777376377 -28.359183290420212 15.667582215397069 -70.35565564973675 -24.583598345132813 -4.134132627511362 3.3223136828989457 -0.45759176397644175 0.03141098202741665 -8.094292125501973 0.001299076971186943 -0.04330713953638327 44.51914033898655 -0.02204199368554374 -0.012651146943694238 44.59176611701756 12.437532208994083 -0.026861540183394643 -0.02868588530045656 0.02573464545029236 -0.030475110284437616 -0.03874252167360834 0.0051208043432003055 -0.026722217671769667 0.01183893539097353 11.113511206561114 0.013757561013370978 -0.021936658544704807 -0.03841371480176399 -0.01684510908162317 0.04910322414539294 -0.024826890459356387 -0.003184966773045325 0.017624500705876203 4.769150814499822 -0.0003919245894902487 -0.04887764362789325 0.0012444345438185854 0.046747134460510056 -0.006318188135428644 0.00781752177434084 0.01988632825303407 -0.048372378866840385 -5.565700694865615 -0.0474097561022181 0.011589400191752497 -6.717828228881103 0.011837865563350796 -0.020942515830946223 -6.7128589595167965 0.01700829777762809 0.014453952379293932 0.03632956925549451 -0.001994898749063552 -0.03150705530426765 8.036622298760733 3.49645805170476 -19.20135833252078 0.028640759112451983 10.377796655706904 0.04626599859542485 -5.644211563958922 -15.689670726997466 3.214682415546571 -0.037250935540909025 -0.006560192603732091 0.032242429627440936 -0.020384493288179935 4.710887432832378 0.04799899275452902 12.419740543902398 -8.197351902479877 6.925125623288281 -0.033434802112846614 46.351586867889075 -0.047797843573989876 -4.331647154606737 -14.771934341041396 -3.879003716986672 0.009028619571872547 0.0378068421322253 0.015207532307981178 -0.03315116123905608 -10.718706923581228 -0.04273693606060345 
0.040009905629806455 0.008040636266211121 -0.048440247388063025 -0.019956038286427554 0.03553323293368414 0.016710593745047117 5.726925226073271 5.22083275144881 -2.294538589770708 -0.7618225207968473 3.6159110366790967 0.3268401857144836 -0.33693641912491035 -0.8486206310349147 -0.29567058104018906 -1.222187006490401 -0.5165558309199039 -0.3067097891038941 -1.2995199970196374 12.939590434992013 2.196022984975119 0.2828731733376391 -1.203797724195627 7.354402597939586 -0.32879990720148805 -18.398501575696223 0.6042553837337781 -10.536389387067025 3.849992984864369 -18.234765584948246 85.13726602889834 -7.87239348955141 -0.974831483120542 27.81779385007457 6.964083286403402 81.59756718010675 8.866626632428321 -0.4842072393361835 -4.4196338836739475 4.554976378055204 -0.13530264997398783 -1.5563249554897727 0.0015547612672384625 0.003972775445795593 -56.254480783817066 0.04149090232275841 0.0018244896934932926 -56.26100012719879 -38.736324102909975 -0.02277376502292189 0.005371283887932812 -0.02779361439454751 -0.006347810932954089 0.007740997630128906 0.02592664487255735 0.041429182172694395 0.037629072314514685 -36.67903127777331 -0.0026617279632090807 0.03273400637949086 -0.04991092379430523 0.003288948702498221 0.01699757621359683 0.0233453301981124 -0.0049923241384029916 -0.004721820854212697 -19.78619883253416 0.0257187489475484 0.007063488960326007 -0.006723602993312912 0.007910051484298125 -0.03647969188006162 -0.030316726880634023 0.036009497612788606 -0.03903963054495826 24.05565664810305 0.025760442278185233 -0.03275158366445414 28.873456847545693 -0.03813885525920679 -0.034632284171509285 28.836915199455174 0.022777578114378003 -0.0062218024013784325 13.279089538916928 3.054947121292401 14.5799240903135 -77.16821160672227 13.964424758602043 -19.28957517072808 -26.109565377802703 16.62947774669494 -68.381816260178 -24.759493458238808 -4.145456647956944 3.535697604844126 -0.43724195659399684 0.037585032150475435 -8.107075128517593 -0.0009715232807511633 0.010883104697638032 44.56074544975266 -0.03404018918276894 -0.007037354661718171 44.52252778122954 12.436596949403434 -0.006884628929836374 0.01648593785272951 -0.024693706897275843 0.04949663309230607 -0.012609961883958638 0.023425635426067046 -0.009986858284385088 -0.03977768777855487 11.095073077460922 0.031845753941561694 0.018748522415616798 0.0023796698893306877 -0.03084890667540436 0.0034464542390705076 -0.046845660968804465 -0.0029042851177115605 0.012936556845357005 4.752422885083942 -0.01965983863499649 0.006949425116162267 -0.016502327354579023 -0.0022105647426243226 -0.032781153111426535 -0.03875578582278527 -0.02011002946736765 0.03166297853495906 -5.621305549471514 0.018943166619659096 -0.010184244169128885 -6.762815328133354 0.02255208810093752 -0.027486817152873443 -6.699312641609203 -0.04717449516481123 -0.04653063555858318 0.0382652273933264 0.039200821983238134 0.022778401693673057 8.02924893675934 3.4959639565340725 -19.187114776519856 -0.019527799304752482 10.412287423975346 0.04464365058488802 -5.594695459938004 -15.654441279060313 3.1942586234408554 0.009511552285341696 -0.021206701446015115 0.016165079660062455 0.018115384829079897 4.705613398096075 0.03103303727543697 12.431815063651891 -8.28650238723032 6.875027363004661 0.03768455736166356 46.34422887323396 0.023077780080139956 -4.339931743216803 -14.770489936165152 -3.8799490469015736 0.023636698499956938 0.04149980059791361 -0.03994302475399168 0.04539487111574176 -10.723427753119308 0.010030138637449358 
0.034213704459996046 -0.021718659593959366 -0.01499415516975208 -0.045370055464269976 0.024360248760094717 0.016173418980360756 5.499718173219862 5.296174214430878 -2.197473976908908 -0.7620668216438027 3.5686736713315597 0.3288866700910313 -0.3242098053778251 -0.8166361284273846 -0.31960883800170614 -1.1763364235928737 -0.4470214981543297 -0.31934445238672343 -1.2016043545075432 12.609810105493365 1.9998606666335519 0.2905968247411589 -1.2530040759363226 6.568753634751101 -0.21901554319530528 -18.37835558177693 0.4911295915983447 -10.16543656119946 3.7767351723378866 -18.05761800945832 85.05100101638932 -7.127604953957495 -1.6117346840566285 26.579043947306555 8.329645890342741 80.27218851847435 8.563392100892694 -0.49566151930571156 -4.334547601838605 4.492649169606496 -0.12157362133671598 -1.6213389356906196 -0.04046808873418837 -0.02919623434440076 -56.249645428477436 0.030567679249489225 0.013595007063570922 -56.26584717389074 -38.72349743090505 -0.018330638112498798 0.010182093600135684 0.02908664890987431 0.04116318730682237 0.04764615197967712 0.001743095589644007 -0.0244650081756887 0.018484465793301135 -36.703047063721954 -0.04077939395093385 0.04371542549997619 0.014251803753379767 -0.00110814269749571 0.04664941375119888 0.03838737908581962 0.01683101840791453 -0.028711319919389702 -19.718637347064416 0.03868084929889513 0.0019364045195410194 -0.029216927418960374 -0.009594292052418038 -0.029290104795156188 0.025320303160423826 -0.024846772559352585 0.013195066582790632 24.03837899840168 -0.008724448320742477 -0.024278367208180034 28.847079461600995 0.0380297515289795 -0.007223816536301667 28.85094326570654 0.025872330676005067 -0.006626462661613308 12.744933451579518 2.9878605086328998 14.47540425262697 -76.62796203378613 14.93422108265298 -18.44315337847902 -22.54938088452885 17.586767548530485 -65.0575046986767 -24.599863314970207 -3.9264293180277647 3.588312723572433 -0.4978660271716577 0.08117084173131568 -8.122157783130463 -0.030881595839311982 0.021509048913784277 44.600182184074015 0.025668341896130632 0.03190412755010369 44.59407950966595 12.473827954417912 -0.020296719724688488 -0.04390062464307402 -0.027855531781640595 -0.004932332355751343 0.01116233990017802 -0.04207565104912654 0.04112218776590749 -0.041937929705448455 11.099996158383563 0.010559116150224703 -0.005648052793071046 -0.03226425904715055 0.03567675020343622 -0.027501612675456664 -0.034742639146092186 0.008802857524792094 -0.001990927120824915 4.799680184180005 0.04468371144743511 0.02831895210645719 -0.03233627076440215 -0.021451722684549222 0.020095028558333682 -0.02264021563002951 -0.01787690906120068 0.019932585788776283 -5.570453443703003 0.028625011548860362 -0.0364805573438737 -6.687084517921624 0.021791889911584053 0.0445524494763839 -6.746483647849961 -0.04091474332643694 0.03179005059383656 -0.02613692415047078 -0.004954108592511647 -0.026149892801631932 8.043549293049134 3.514098102780998 -19.19960023283175 -0.03711323917335678 10.357780109652614 0.050924872819049144 -5.575661066904177 -15.665044832266393 3.1612750630797435 0.003073780649003339 0.03883432048065213 -0.01730735027014669 -0.023985638334571614 4.699287983201966 -0.0203451991902162 12.460613264173118 -8.267316258674468 6.924083525518706 -0.02024615600304324 46.41670188224446 -0.011997740311464423 -4.323028494988804 -14.75670154375677 -3.844644656762607 0.03887824637888866 0.026140224365564204 0.024602883563064885 0.024815686706796684 -10.73069645243587 0.024858180496516887 
-0.024294160899734796 -0.01093327010693522 -0.011357935500945264 -0.004749803896413811 0.01875912553666897 0.035043248919020116 5.163081312986128 5.368145917331226 -2.164711751283183 -0.7239524732545256 3.607125712796293 0.33950993219569414 -0.4107091755982852 -0.8046498245747613 -0.34851529709210893 -1.0960911458843887 -0.44972655656048705 -0.35267984279208126 -1.1974652089670235 12.419618440628959 1.7444008264447957 0.20865563821312227 -1.3608968237893309 5.921259404271531 -0.20282401306044928 -18.45539512208239 0.4865451816799158 -9.801866279253494 3.753526353397925 -17.888181242430026 84.78300818181683 -5.919600140014277 -2.375667703829876 24.010598986869027 9.814540199959064 77.92127181195488 8.487579856743713 -0.42935928891270203 -3.954207073103442 4.514987695915192 -0.12119178208531456 -1.6370623586437734 -0.006186085697790544 -0.01768343319058983 -56.24724274391307 -0.047493117988045556 0.02700008631999325 -56.2508114519899 -38.79836607784255 0.048795401180676976 -0.002741811892751774 -0.03691386998670502 0.014285167196604834 0.012705344546042498 -0.04337766003653968 -0.007205880359635656 -0.020978678299585694 -36.68521114796818 0.019779737538274212 0.024890137889408175 0.003397507562040856 -0.031776499505706164 0.027002963661749094 -0.04283126425025444 0.005631421024446463 -0.0217112752312328 -19.75489185403372 -0.02046397911366428 -0.008088666981890534 -0.03424065054240211 0.014463403906388806 -0.008494699601585701 -0.01723286003886438 0.005230750026090054 -0.022461870236519393 24.05433063061272 -0.0012501312635396237 0.0007166198985711105 28.90387491020791 -0.031359314784416614 0.04180773035636954 28.89287570647759 -0.0010243017604962125 0.0447239753774495 12.276752250907537 2.877748402882097 14.374923534592007 -75.80044605374113 15.851561060410573 -17.743161950230274 -18.30530658610244 18.704709437260277 -61.593234315900304 -24.609900513903057 -3.6956173591761385 3.7203150228641335 -0.49897062695630284 0.07919238545046867 -8.133598980469122 0.030301143569764804 0.00035525220096692455 44.584930593795576 -0.01766053232684165 -0.0089788453796645 44.54619801341926 12.470863522919892 -0.03797465915891621 0.03401335327740348 0.01742029388448717 0.0198143946413603 0.04594284095657644 -0.04274932754783115 0.03121240468308068 0.004065208495159919 11.121803836567956 -0.007112188072042316 -0.037809816760178874 0.019664947101340802 -0.005618021289984959 0.0017724452666424897 0.020926639765465237 -0.038970622583243804 -0.01571090499596413 4.783206998747702 0.01863447689690641 -0.04619734669698293 -0.036169295888699785 -0.0019565425831549296 -0.036212613584293576 -0.017580979849188407 -0.02770261152931089 -0.028652388500482 -5.614703163920666 0.03543536166696127 -0.009260962776674748 -6.743866353529275 0.02438776234767195 0.004926550427494035 -6.67344715859646 -0.007331241109978621 -0.02820042871659828 0.008983184136104562 0.029418891002873707 0.022360383095836284 8.08030652714962 3.4899745030390843 -19.196280210052613 -0.03214831168132603 10.418807090406103 0.06376340457937736 -5.630916078115638 -15.635379226272335 3.1917714818081926 0.02739936565409647 -0.04482919643569996 -0.030747851637251158 -0.03461826606770639 4.667008525283259 -0.03172377432454132 12.45063503972029 -8.224580582363044 6.875429329188509 -0.004718168532916707 46.398759137378285 -0.01625993857997594 -4.30470840961437 -14.728664646304862 -3.8547034343062014 0.027178410254838366 0.00424295649974308 -0.045232729579761315 0.04955588034626797 -10.706555975367747 -0.008375041701242838 
